<svg width="32" height="32" viewBox="0 0 32 32" fill="none" xmlns="http://www.w3.org/2000/svg">
<path fill-rule="evenodd" clip-rule="evenodd" d="M3.5 12C3.5 11.4477 3.94772 11 4.5 11H9.5C10.0523 11 10.5 11.4477 10.5 12C10.5 12.5523 10.0523 13 9.5 13H4.5C3.94772 13 3.5 12.5523 3.5 12Z" fill="black"/>
<path fill-rule="evenodd" clip-rule="evenodd" d="M3.5 16C3.5 15.4477 3.94772 15 4.5 15H9.5C10.0523 15 10.5 15.4477 10.5 16C10.5 16.5523 10.0523 17 9.5 17H4.5C3.94772 17 3.5 16.5523 3.5 16Z" fill="black"/>
<path fill-rule="evenodd" clip-rule="evenodd" d="M3.5 20C3.5 19.4477 3.94772 19 4.5 19H9.5C10.0523 19 10.5 19.4477 10.5 20C10.5 20.5523 10.0523 21 9.5 21H4.5C3.94772 21 3.5 20.5523 3.5 20Z" fill="black"/>
<path fill-rule="evenodd" clip-rule="evenodd" d="M3.5 24C3.5 23.4477 3.94772 23 4.5 23H9.5C10.0523 23 10.5 23.4477 10.5 24C10.5 24.5523 10.0523 25 9.5 25H4.5C3.94772 25 3.5 24.5523 3.5 24Z" fill="black"/>
<path fill-rule="evenodd" clip-rule="evenodd" d="M12.5 16C12.5 15.4477 12.9477 15 13.5 15H18.5C19.0523 15 19.5 15.4477 19.5 16C19.5 16.5523 19.0523 17 18.5 17H13.5C12.9477 17 12.5 16.5523 12.5 16Z" fill="black"/>
<path fill-rule="evenodd" clip-rule="evenodd" d="M12.5 20C12.5 19.4477 12.9477 19 13.5 19H18.5C19.0523 19 19.5 19.4477 19.5 20C19.5 20.5523 19.0523 21 18.5 21H13.5C12.9477 21 12.5 20.5523 12.5 20Z" fill="black"/>
<path fill-rule="evenodd" clip-rule="evenodd" d="M12.5 24C12.5 23.4477 12.9477 23 13.5 23H18.5C19.0523 23 19.5 23.4477 19.5 24C19.5 24.5523 19.0523 25 18.5 25H13.5C12.9477 25 12.5 24.5523 12.5 24Z" fill="black"/>
<path fill-rule="evenodd" clip-rule="evenodd" d="M21.5 12C21.5 11.4477 21.9477 11 22.5 11H27.5C28.0523 11 28.5 11.4477 28.5 12C28.5 12.5523 28.0523 13 27.5 13H22.5C21.9477 13 21.5 12.5523 21.5 12Z" fill="black"/>
<path fill-rule="evenodd" clip-rule="evenodd" d="M21.5 8C21.5 7.44772 21.9477 7 22.5 7H27.5C28.0523 7 28.5 7.44772 28.5 8C28.5 8.55228 28.0523 9 27.5 9H22.5C21.9477 9 21.5 8.55228 21.5 8Z" fill="black"/>
<path fill-rule="evenodd" clip-rule="evenodd" d="M21.5 16C21.5 15.4477 21.9477 15 22.5 15H27.5C28.0523 15 28.5 15.4477 28.5 16C28.5 16.5523 28.0523 17 27.5 17H22.5C21.9477 17 21.5 16.5523 21.5 16Z" fill="black"/>
<path fill-rule="evenodd" clip-rule="evenodd" d="M21.5 20C21.5 19.4477 21.9477 19 22.5 19H27.5C28.0523 19 28.5 19.4477 28.5 20C28.5 20.5523 28.0523 21 27.5 21H22.5C21.9477 21 21.5 20.5523 21.5 20Z" fill="black"/>
<path fill-rule="evenodd" clip-rule="evenodd" d="M21.5 24C21.5 23.4477 21.9477 23 22.5 23H27.5C28.0523 23 28.5 23.4477 28.5 24C28.5 24.5523 28.0523 25 27.5 25H22.5C21.9477 25 21.5 24.5523 21.5 24Z" fill="black"/>
</svg>
