<svg width="32" height="32" viewBox="0 0 32 32" fill="none" xmlns="http://www.w3.org/2000/svg">
<path fill-rule="evenodd" clip-rule="evenodd" d="M7.01542 5.03526C7.327 4.85904 7.68017 4.76967 8.03807 4.77649C8.39526 4.78329 8.7441 4.88564 9.04832 5.07289L9.05013 5.074L24.1269 14.3C24.4163 14.4794 24.6551 14.7297 24.8207 15.0272C24.9864 15.3247 25.0733 15.6596 25.0733 16.0001C25.0733 16.3406 24.9864 16.6754 24.8207 16.9729C24.6551 17.2704 24.4163 17.5207 24.1268 17.7001L24.122 17.703L9.05013 26.9261L9.04875 26.927C8.74442 27.1144 8.39543 27.2168 8.03807 27.2236C7.68017 27.2304 7.327 27.1411 7.01542 26.9649C6.70383 26.7886 6.44525 26.532 6.26667 26.2218C6.0892 25.9135 5.99719 25.5635 6.00007 25.2078V6.7923C5.99719 6.43666 6.0892 6.08664 6.26667 5.77834C6.44526 5.46811 6.70383 5.21149 7.01542 5.03526ZM23.0733 16.0001L8 6.77613L8.00013 6.78756L8.00007 25.224L8.0031 25.2221L23.0733 16.0001Z" fill="black"/>
<path fill-rule="evenodd" clip-rule="evenodd" d="M25 4C25.5523 4 26 4.44772 26 5V27C26 27.5523 25.5523 28 25 28C24.4477 28 24 27.5523 24 27V5C24 4.44772 24.4477 4 25 4Z" fill="black"/>
</svg>
