<svg width="32" height="32" viewBox="0 0 32 32" fill="none" xmlns="http://www.w3.org/2000/svg">
<path fill-rule="evenodd" clip-rule="evenodd" d="M23.962 4.77649C24.3199 4.76967 24.673 4.85904 24.9846 5.03526C25.2962 5.21149 25.5548 5.46811 25.7334 5.77834C25.9109 6.08666 26.0029 6.4367 26 6.79237V25.2078C26.0029 25.5634 25.9109 25.9135 25.7334 26.2218C25.5548 26.532 25.2962 26.7886 24.9846 26.9649C24.673 27.1411 24.3199 27.2304 23.962 27.2236C23.6046 27.2168 23.2556 27.1144 22.9513 26.927L22.9499 26.9261L7.87801 17.703L7.87319 17.7001C7.58377 17.5207 7.34494 17.2704 7.17931 16.9729C7.01369 16.6754 6.92676 16.3406 6.92676 16.0001C6.92676 15.6596 7.01369 15.3247 7.17931 15.0272C7.34494 14.7297 7.58377 14.4794 7.87319 14.3001L7.878 14.2971L22.9499 5.074L22.9518 5.07285C23.256 4.88563 23.6048 4.78329 23.962 4.77649ZM23.9969 6.77803L8.92676 16.0001L23.9969 25.2221L24 25.224L23.9999 25.2126L24 6.77616L23.9969 6.77803Z" fill="black"/>
<path fill-rule="evenodd" clip-rule="evenodd" d="M7 4C7.55228 4 8 4.44772 8 5V27C8 27.5523 7.55228 28 7 28C6.44772 28 6 27.5523 6 27V5C6 4.44772 6.44772 4 7 4Z" fill="black"/>
</svg>
