<svg width="32" height="32" viewBox="0 0 32 32" fill="none" xmlns="http://www.w3.org/2000/svg">
    <path fill-rule="evenodd" clip-rule="evenodd" d="M26.6544 8.93117C27.0444 8.54019 27.6776 8.53945 28.0686 8.92952C28.9985 9.85725 29.7362 10.9593 30.2396 12.1725C30.743 13.3858 31.0021 14.6864 31.0021 16C31.0021 17.3135 30.743 18.6141 30.2396 19.8274C29.7362 21.0406 28.9985 22.1427 28.0686 23.0704C27.6776 23.4604 27.0444 23.4597 26.6544 23.0687C26.2643 22.6778 26.265 22.0446 26.656 21.6545C27.3997 20.9126 27.9897 20.0312 28.3923 19.0609C28.7949 18.0906 29.0021 17.0504 29.0021 16C29.0021 14.9495 28.7949 13.9093 28.3923 12.939C27.9897 11.9687 27.3997 11.0873 26.656 10.3454C26.265 9.95531 26.2643 9.32214 26.6544 8.93117Z" fill="black"/>
    <path fill-rule="evenodd" clip-rule="evenodd" d="M19.4394 3.10169C19.7824 3.2695 20 3.61807 20 4.00001V28C20 28.3819 19.7824 28.7305 19.4394 28.8983C19.0963 29.0661 18.6875 29.0238 18.3861 28.7894L9.65689 22H4C3.46957 22 2.96086 21.7893 2.58579 21.4142C2.21071 21.0391 2 20.5304 2 20V12C2 11.4696 2.21071 10.9609 2.58579 10.5858C2.96086 10.2107 3.46957 10 4 10H9.65689L18.3861 3.21066C18.6875 2.97617 19.0963 2.93389 19.4394 3.10169ZM18 6.04465L10.6139 11.7894C10.4384 11.9259 10.2224 12 10 12H4V20H10C10.2224 20 10.4384 20.0741 10.6139 20.2107L18 25.9554V6.04465Z" fill="black"/>
    <path fill-rule="evenodd" clip-rule="evenodd" d="M23.1167 12.4693C23.5065 12.078 24.1397 12.0768 24.5309 12.4666C24.9961 12.93 25.3652 13.4806 25.617 14.087C25.8689 14.6934 25.9985 15.3435 25.9985 16C25.9985 16.6566 25.8689 17.3067 25.617 17.9131C25.3652 18.5195 24.9961 19.0701 24.5309 19.5335C24.1397 19.9233 23.5065 19.9221 23.1167 19.5308C22.727 19.1395 22.7282 18.5064 23.1194 18.1166C23.3981 17.839 23.6192 17.5092 23.77 17.146C23.9209 16.7828 23.9985 16.3933 23.9985 16C23.9985 15.6068 23.9209 15.2173 23.77 14.8541C23.6192 14.4909 23.3981 14.1611 23.1194 13.8835C22.7282 13.4937 22.727 12.8606 23.1167 12.4693Z" fill="black"/>
</svg>
