<svg width="32" height="32" viewBox="0 0 32 32" fill="none" xmlns="http://www.w3.org/2000/svg">
<path fill-rule="evenodd" clip-rule="evenodd" d="M24 12C24.5523 12 25 12.4477 25 13V19C25 19.5523 24.5523 20 24 20C23.4477 20 23 19.5523 23 19V13C23 12.4477 23.4477 12 24 12Z" fill="black"/>
<path fill-rule="evenodd" clip-rule="evenodd" d="M28 10C28.5523 10 29 10.4477 29 11V21C29 21.5523 28.5523 22 28 22C27.4477 22 27 21.5523 27 21V11C27 10.4477 27.4477 10 28 10Z" fill="black"/>
<path fill-rule="evenodd" clip-rule="evenodd" d="M5.32733 4.26007C5.73599 3.88856 6.36844 3.91868 6.73995 4.32733L26.7399 26.3273C27.1115 26.736 27.0813 27.3684 26.6727 27.7399C26.264 28.1115 25.6316 28.0813 25.2601 27.6727L5.26007 5.67268C4.88856 5.26402 4.91868 4.63157 5.32733 4.26007Z" fill="black"/>
<path fill-rule="evenodd" clip-rule="evenodd" d="M19.439 3.10154C19.7823 3.26928 19.9999 3.61795 19.9999 4.00001V13.35C19.9999 13.9023 19.5522 14.35 18.9999 14.35C18.4477 14.35 17.9999 13.9023 17.9999 13.35V6.04645L14.6394 8.66393C14.2037 9.00331 13.5754 8.92521 13.236 8.4895C12.8967 8.05379 12.9747 7.42546 13.4105 7.08608L18.3855 3.21108C18.6869 2.97631 19.0957 2.9338 19.439 3.10154Z" fill="black"/>
<path fill-rule="evenodd" clip-rule="evenodd" d="M2.58579 10.5858C2.96086 10.2107 3.46957 10 4 10H11.45C12.0023 10 12.45 10.4477 12.45 11C12.45 11.5523 12.0023 12 11.45 12H4V20H10C10.2224 20 10.4384 20.0741 10.6139 20.2106L18 25.9554V19.3C18 18.7477 18.4477 18.3 19 18.3C19.5523 18.3 20 18.7477 20 19.3V28C20 28.3819 19.7824 28.7305 19.4394 28.8983C19.0963 29.0661 18.6875 29.0238 18.3861 28.7894L9.65689 22H4C3.46957 22 2.96086 21.7893 2.58579 21.4142C2.21071 21.0391 2 20.5304 2 20V12C2 11.4696 2.21071 10.9609 2.58579 10.5858Z" fill="black"/>
</svg>
