<svg width="32" height="32" viewBox="0 0 32 32" fill="none" xmlns="http://www.w3.org/2000/svg">
<path fill-rule="evenodd" clip-rule="evenodd" d="M3 7C3 5.89543 3.89543 5 5 5H27C28.1046 5 29 5.89543 29 7V25C29 26.1046 28.1046 27 27 27H5C3.89543 27 3 26.1046 3 25V7ZM27 7H5V25H27V7Z" fill="black"/>
<path fill-rule="evenodd" clip-rule="evenodd" d="M10.2276 13.5694C10.4722 13.4669 10.7348 13.4142 11 13.4142C11.2652 13.4142 11.5278 13.4669 11.7724 13.5694C12.0157 13.6712 12.2364 13.8202 12.4218 14.0076L18 19.5858L18.0054 19.5804L20.5783 17.0075C20.7637 16.8201 20.9844 16.6712 21.2276 16.5694C21.4722 16.4669 21.7348 16.4142 22 16.4142C22.2652 16.4142 22.5278 16.4669 22.7724 16.5694C23.0156 16.6712 23.2363 16.8201 23.4217 17.0075L28.7071 22.2929C29.0976 22.6834 29.0976 23.3166 28.7071 23.7071C28.3166 24.0976 27.6834 24.0976 27.2929 23.7071L22 18.4142L21.9946 18.4196L19.425 20.9892L19.4218 20.9924C19.2364 21.1798 19.0157 21.3288 18.7724 21.4307C18.5278 21.5331 18.2652 21.5858 18 21.5858C17.7348 21.5858 17.4722 21.5331 17.2276 21.4307C16.9843 21.3288 16.7636 21.1798 16.5782 20.9924L11 15.4142L10.9946 15.4196L4.70711 21.7071C4.31658 22.0976 3.68342 22.0976 3.29289 21.7071C2.90237 21.3166 2.90237 20.6834 3.29289 20.2929L9.57812 14.0077C9.76358 13.8202 9.98429 13.6712 10.2276 13.5694Z" fill="black"/>
<path d="M19.5 14C20.3284 14 21 13.3284 21 12.5C21 11.6716 20.3284 11 19.5 11C18.6716 11 18 11.6716 18 12.5C18 13.3284 18.6716 14 19.5 14Z" fill="black"/>
</svg>
