<svg width="32" height="32" viewBox="0 0 32 32" fill="none" xmlns="http://www.w3.org/2000/svg">
<path fill-rule="evenodd" clip-rule="evenodd" d="M9.02628 3.25414C9.33709 3.0809 9.68848 2.99372 10.0442 3.00159C10.3992 3.00944 10.7457 3.11165 11.0481 3.29771L11.05 3.2989L29.0289 14.2937C29.3229 14.4692 29.5666 14.7178 29.7362 15.0152C29.9074 15.3152 29.9974 15.6546 29.9974 16C29.9974 16.3454 29.9074 16.6848 29.7362 16.9848C29.5666 17.2822 29.3229 17.5308 29.0289 17.7063L11.05 28.7011L11.0478 28.7025C10.7454 28.8884 10.3991 28.9906 10.0442 28.9984C9.68849 29.0063 9.33709 28.9191 9.02628 28.7459C8.71548 28.5726 8.45651 28.3196 8.27611 28.0129C8.09571 27.7062 8.00039 27.3569 8 27.0011V4.9989C8.00039 4.64307 8.09571 4.29379 8.27611 3.98709C8.45651 3.68039 8.71548 3.42737 9.02628 3.25414ZM28.5125 15.15L27.9968 15.9932L28.0033 15.9893C28.0015 15.9904 28 15.992 27.999 15.9938C27.9979 15.9957 27.9974 15.9978 27.9974 16C27.9974 16.0022 27.9979 16.0043 27.999 16.0062C28.0001 16.0081 28.0016 16.0096 28.0035 16.0108L28.5125 15.15ZM27.9857 16L10 5.00111L10 26.9989L10.0033 26.9969L27.9857 16Z" fill="black"/>
</svg>
