<svg width="32" height="32" viewBox="0 0 32 32" fill="none" xmlns="http://www.w3.org/2000/svg">
<path fill-rule="evenodd" clip-rule="evenodd" d="M22.5 19C21.1193 19 20 20.1193 20 21.5C20 22.8807 21.1193 24 22.5 24C23.8807 24 25 22.8807 25 21.5C25 20.1193 23.8807 19 22.5 19ZM18 21.5C18 19.0147 20.0147 17 22.5 17C24.9853 17 27 19.0147 27 21.5C27 23.9853 24.9853 26 22.5 26C20.0147 26 18 23.9853 18 21.5Z" fill="black"/>
<path fill-rule="evenodd" clip-rule="evenodd" d="M6.5 23C5.11929 23 4 24.1193 4 25.5C4 26.8807 5.11929 28 6.5 28C7.88071 28 9 26.8807 9 25.5C9 24.1193 7.88071 23 6.5 23ZM2 25.5C2 23.0147 4.01472 21 6.5 21C8.98528 21 11 23.0147 11 25.5C11 27.9853 8.98528 30 6.5 30C4.01472 30 2 27.9853 2 25.5Z" fill="black"/>
<path fill-rule="evenodd" clip-rule="evenodd" d="M26.9704 9.75746C27.1043 10.2933 26.7786 10.8362 26.2428 10.9701L10.2428 14.9701C9.70698 15.1041 9.16404 14.7783 9.03009 14.2425C8.89615 13.7067 9.22191 13.1638 9.7577 13.0299L25.7577 9.02985C26.2935 8.8959 26.8364 9.22166 26.9704 9.75746Z" fill="black"/>
<path fill-rule="evenodd" clip-rule="evenodd" d="M26.6154 3.2118C26.8581 3.40131 27 3.69207 27 4.00001V21.5C27 22.0523 26.5523 22.5 26 22.5C25.4477 22.5 25 22.0523 25 21.5V5.28079L11 8.78079V25.5C11 26.0523 10.5523 26.5 10 26.5C9.44772 26.5 9 26.0523 9 25.5V8.00001C9 7.54114 9.3123 7.14116 9.75746 7.02987L25.7575 3.02987C26.0562 2.95518 26.3727 3.0223 26.6154 3.2118Z" fill="black"/>
</svg>
