<svg width="32" height="32" viewBox="0 0 32 32" fill="none" xmlns="http://www.w3.org/2000/svg">
<path fill-rule="evenodd" clip-rule="evenodd" d="M15.1864 3.64325C15.4422 3.5285 15.7194 3.46918 15.9998 3.46918C16.2802 3.46918 16.5574 3.5285 16.8132 3.64325C17.0659 3.75658 17.292 3.92145 17.4772 4.12724L27.1876 14.65C27.4495 14.9362 27.6224 15.2924 27.6854 15.6752C27.7484 16.058 27.6987 16.4509 27.5424 16.8059C27.3861 17.161 27.1298 17.4629 26.805 17.6749C26.4801 17.8869 26.1005 17.9999 25.7126 18H6.28728C5.89934 17.9999 5.51949 17.8869 5.1946 17.6749C4.86971 17.4629 4.6135 17.161 4.45717 16.8059C4.30084 16.4509 4.25115 16.058 4.31414 15.6752C4.37714 15.2924 4.5501 14.9362 4.81196 14.65L4.81487 14.6468L14.5224 4.1272C14.7076 3.92143 14.9337 3.75657 15.1864 3.64325ZM15.2623 4.79998L15.9972 5.47815L6.2876 16H25.712L16.0024 5.47815L15.9906 5.46515L15.9947 5.46808L15.9998 5.46918L16.0049 5.46808L16.0091 5.46499L15.2623 4.79998Z" fill="black"/>
<path fill-rule="evenodd" clip-rule="evenodd" d="M6 27C4.89543 27 4 26.1046 4 25V22C4 20.8954 4.89543 20 6 20H26C27.1046 20 28 20.8954 28 22V25C28 26.1046 27.1046 27 26 27H6ZM6 22V25H26V22H6Z" fill="black"/>
</svg>
